<?xml version="1.0" standalone="no"?>
<!DOCTYPE svg PUBLIC "-//W3C//DTD SVG 20010904//EN"
 "http://www.w3.org/TR/2001/REC-SVG-20010904/DTD/svg10.dtd">
<svg version="1.0" xmlns="http://www.w3.org/2000/svg"
 width="48.000000pt" height="48.000000pt" viewBox="0 0 48.000000 48.000000"
 preserveAspectRatio="xMidYMid meet">

<g transform="translate(0.000000,48.000000) scale(0.100000,-0.100000)"
fill="#000000" stroke="none">
<path d="M212 423 c-6 -10 -22 -45 -36 -77 -23 -51 -24 -58 -8 -53 9 2 23 6
31 8 7 2 15 -1 17 -7 3 -5 -23 -23 -55 -39 l-60 -28 51 -99 c27 -54 55 -97 62
-95 6 2 21 26 34 53 41 91 48 99 110 133 34 19 62 39 62 44 0 6 -16 39 -36 74
-25 45 -41 63 -52 61 -10 -2 -16 -12 -14 -23 2 -11 4 -26 5 -34 5 -35 -21 -16
-48 36 -33 62 -49 74 -63 46z"/>
<path d="M378 197 l-57 -32 31 -68 32 -68 40 3 c35 3 41 6 44 28 1 14 -6 58
-15 97 l-18 73 -57 -33z"/>
<path d="M41 121 c-19 -38 -31 -74 -27 -80 10 -15 146 -15 146 0 0 14 -73 149
-81 149 -3 0 -20 -31 -38 -69z"/>
<path d="M283 90 c-11 -25 -18 -48 -16 -52 2 -5 20 -8 39 -8 39 0 40 7 15 65
l-18 40 -20 -45z"/>
</g>
</svg>
