<?xml version="1.0" standalone="no"?>
<!DOCTYPE svg PUBLIC "-//W3C//DTD SVG 20010904//EN"
 "http://www.w3.org/TR/2001/REC-SVG-20010904/DTD/svg10.dtd">
<svg version="1.0" xmlns="http://www.w3.org/2000/svg"
 width="48.000000pt" height="48.000000pt" viewBox="0 0 48.000000 48.000000"
 preserveAspectRatio="xMidYMid meet">

<g transform="translate(0.000000,48.000000) scale(0.100000,-0.100000)"
fill="#000000" stroke="none">
<path d="M174 466 c-8 -22 3 -49 19 -43 6 2 12 14 12 27 0 27 -22 39 -31 16z"/>
<path d="M55 420 c-8 -13 13 -40 31 -40 17 0 18 22 2 38 -15 15 -25 15 -33 2z"/>
<path d="M292 418 c-16 -16 -15 -38 2 -38 18 0 39 27 31 40 -8 13 -18 13 -33
-2z"/>
<path d="M145 391 c-31 -13 -56 -46 -58 -76 -2 -32 20 -46 29 -18 13 34 47 63
75 63 15 0 31 -4 34 -10 11 -18 35 -11 35 10 0 33 -67 50 -115 31z"/>
<path d="M332 343 c-4 -11 -18 -18 -32 -18 -21 0 -25 -5 -25 -27 1 -18 -5 -30
-17 -34 -24 -7 -23 -45 0 -51 14 -3 18 -11 14 -30 -6 -29 14 -46 39 -33 13 7
18 5 22 -10 6 -25 45 -27 55 -2 4 10 18 17 32 17 20 0 25 5 25 25 0 14 7 28
18 32 9 4 17 17 17 28 0 11 -8 24 -17 28 -11 4 -18 18 -18 32 0 20 -5 25 -25
25 -14 0 -28 7 -32 18 -4 9 -17 17 -28 17 -11 0 -24 -8 -28 -17z m58 -78 c15
-18 10 -45 -12 -59 -35 -22 -74 27 -48 59 16 19 44 19 60 0z"/>
<path d="M5 300 c-4 -7 -3 -16 3 -22 14 -14 47 -6 47 12 0 18 -40 26 -50 10z"/>
<path d="M113 256 c-4 -8 -17 -14 -28 -13 -14 1 -20 -4 -18 -17 1 -11 -6 -26
-15 -33 -16 -12 -16 -14 0 -26 9 -7 16 -22 15 -33 -1 -13 4 -18 17 -17 11 1
26 -6 33 -15 12 -16 14 -16 26 0 7 9 22 16 33 15 13 -1 18 4 17 17 -1 11 6 26
15 33 16 12 16 14 0 26 -9 7 -16 22 -15 33 2 13 -4 18 -18 17 -11 -1 -24 5
-28 13 -4 8 -12 14 -17 14 -5 0 -13 -6 -17 -14z m42 -76 c0 -18 -6 -26 -23
-28 -13 -2 -25 3 -28 12 -10 26 4 48 28 44 17 -2 23 -10 23 -28z"/>
<path d="M422 87 c-27 -28 -28 -47 -4 -47 20 0 62 39 62 58 0 20 -35 13 -58
-11z"/>
<path d="M344 87 c-10 -28 0 -82 16 -82 11 0 15 12 15 44 0 44 -19 68 -31 38z"/>
<path d="M10 57 c0 -19 43 -57 63 -57 24 0 21 23 -6 48 -26 24 -57 29 -57 9z"/>
<path d="M114 56 c-9 -23 0 -51 16 -51 10 0 15 10 15 29 0 32 -21 47 -31 22z"/>
<path d="M280 37 c0 -18 28 -42 37 -33 9 8 -9 38 -25 44 -7 2 -12 -3 -12 -11z"/>
</g>
</svg>
