<?xml version="1.0" standalone="no"?>
<!DOCTYPE svg PUBLIC "-//W3C//DTD SVG 20010904//EN"
 "http://www.w3.org/TR/2001/REC-SVG-20010904/DTD/svg10.dtd">
<svg version="1.0" xmlns="http://www.w3.org/2000/svg"
 width="48.000000pt" height="48.000000pt" viewBox="0 0 48.000000 48.000000"
 preserveAspectRatio="xMidYMid meet">

<g transform="translate(0.000000,48.000000) scale(0.100000,-0.100000)"
fill="#000000" stroke="none">
<path d="M100 467 c0 -8 24 -29 53 -46 68 -39 139 -101 167 -146 26 -42 51
-44 79 -9 18 23 19 29 7 53 -21 40 -101 110 -152 133 -25 11 -70 22 -100 25
-45 5 -54 3 -54 -10z"/>
<path d="M101 262 c-106 -100 -117 -121 -78 -146 24 -15 36 -6 141 107 87 95
89 98 71 117 -10 11 -21 20 -24 20 -3 -1 -53 -45 -110 -98z"/>
<path d="M407 212 c-23 -25 -21 -49 4 -63 28 -14 69 3 69 29 0 20 -29 52 -47
52 -5 0 -17 -8 -26 -18z"/>
<path d="M253 160 c-27 -16 -33 -26 -33 -54 0 -28 6 -38 35 -56 l35 -22 35 22
c29 18 35 28 35 56 0 28 -6 38 -32 54 -18 11 -35 20 -38 20 -3 0 -20 -9 -37
-20z"/>
<path d="M408 76 c-26 -19 -22 -50 7 -66 22 -12 27 -11 45 5 11 10 20 25 20
33 0 16 -28 41 -45 41 -5 0 -18 -6 -27 -13z"/>
</g>
</svg>
