<?xml version="1.0" standalone="no"?>
<!DOCTYPE svg PUBLIC "-//W3C//DTD SVG 20010904//EN"
 "http://www.w3.org/TR/2001/REC-SVG-20010904/DTD/svg10.dtd">
<svg version="1.0" xmlns="http://www.w3.org/2000/svg"
 width="48.000000pt" height="48.000000pt" viewBox="0 0 48.000000 48.000000"
 preserveAspectRatio="xMidYMid meet">

<g transform="translate(0.000000,48.000000) scale(0.100000,-0.100000)"
fill="#000000" stroke="none">
<path d="M98 435 c-15 -25 -27 -56 -26 -68 1 -13 -9 -38 -22 -56 -19 -28 -21
-37 -11 -53 10 -16 8 -25 -9 -53 -27 -43 -20 -55 31 -55 38 0 40 -2 37 -26 -2
-21 -12 -30 -48 -43 -39 -14 -45 -21 -48 -49 l-3 -32 180 0 c100 0 181 4 181
8 0 25 -92 74 -162 87 -31 6 -38 11 -38 31 0 21 5 24 39 24 51 0 58 12 31 55
-17 28 -19 37 -9 53 10 16 8 25 -11 53 -13 18 -23 43 -22 56 2 20 -46 113 -58
113 -3 0 -17 -20 -32 -45z"/>
<path d="M365 333 c-19 -31 -25 -48 -17 -51 9 -3 8 -11 -3 -32 -20 -38 -19
-40 10 -40 37 0 34 -36 -3 -44 -15 -4 -41 -17 -57 -30 l-29 -23 34 -18 c43
-21 90 -64 90 -82 0 -9 15 -13 45 -13 l45 0 0 90 0 90 -30 0 c-20 0 -30 5 -30
15 0 9 9 15 25 15 29 0 30 2 10 40 -10 20 -11 30 -3 32 11 4 -37 98 -50 98 -4
0 -20 -21 -37 -47z"/>
</g>
</svg>
