<?xml version="1.0" standalone="no"?>
<!DOCTYPE svg PUBLIC "-//W3C//DTD SVG 20010904//EN"
 "http://www.w3.org/TR/2001/REC-SVG-20010904/DTD/svg10.dtd">
<svg version="1.0" xmlns="http://www.w3.org/2000/svg"
 width="48.000000pt" height="48.000000pt" viewBox="0 0 48.000000 48.000000"
 preserveAspectRatio="xMidYMid meet">

<g transform="translate(0.000000,48.000000) scale(0.100000,-0.100000)"
fill="#000000" stroke="none">
<path d="M182 387 c-55 -55 -61 -67 -38 -67 10 0 16 -13 18 -37 3 -33 6 -38
28 -38 21 0 26 6 30 35 3 22 10 35 20 35 10 0 17 -13 20 -35 4 -29 9 -35 30
-35 22 0 25 5 28 38 2 24 8 37 18 37 8 0 14 4 14 8 0 8 -102 112 -111 112 -2
0 -28 -24 -57 -53z"/>
<path d="M51 186 c-43 -44 -50 -55 -38 -62 9 -5 17 -25 19 -44 3 -30 7 -35 28
-35 22 0 25 5 28 38 2 28 8 37 22 37 14 0 20 -9 22 -37 3 -33 6 -38 28 -38 21
0 25 5 28 35 2 19 10 39 19 44 12 7 5 18 -38 62 -29 30 -56 54 -59 54 -3 0
-30 -24 -59 -54z"/>
<path d="M312 187 c-55 -55 -61 -67 -38 -67 10 0 16 -13 18 -38 3 -32 6 -37
28 -37 22 0 25 5 28 38 2 28 8 37 22 37 14 0 20 -9 22 -37 3 -33 6 -38 28 -38
21 0 25 5 28 35 2 19 10 39 19 44 12 7 5 18 -38 62 -29 30 -56 54 -59 54 -3 0
-29 -24 -58 -53z"/>
</g>
</svg>
