<?xml version="1.0" standalone="no"?>
<!DOCTYPE svg PUBLIC "-//W3C//DTD SVG 20010904//EN"
 "http://www.w3.org/TR/2001/REC-SVG-20010904/DTD/svg10.dtd">
<svg version="1.0" xmlns="http://www.w3.org/2000/svg"
 width="48.000000pt" height="48.000000pt" viewBox="0 0 48.000000 48.000000"
 preserveAspectRatio="xMidYMid meet">

<g transform="translate(0.000000,48.000000) scale(0.100000,-0.100000)"
fill="#000000" stroke="none">
<path d="M13 474 c-9 -4 -13 -38 -13 -118 0 -112 0 -113 27 -125 18 -8 29 -9
37 -1 16 16 51 12 70 -9 10 -11 28 -22 42 -25 13 -4 24 -11 24 -16 0 -16 -52
0 -73 21 -22 23 -36 24 -64 4 -14 -10 -24 -12 -28 -5 -3 5 -13 10 -21 10 -19
0 -21 -125 -2 -133 7 -2 42 -1 78 4 112 13 160 41 160 91 0 40 -37 71 -122
104 -77 31 -106 60 -89 92 17 32 67 51 209 78 13 3 22 10 19 17 -4 12 -228 22
-254 11z"/>
<path d="M348 430 c-37 -5 -83 -14 -103 -20 -66 -22 -91 -86 -42 -111 11 -6
58 -24 105 -40 114 -39 132 -51 132 -93 0 -60 -69 -110 -170 -125 -30 -4 -45
-11 -45 -21 0 -12 19 -16 100 -18 158 -5 145 -21 145 179 l0 171 -27 -5 c-15
-3 -37 1 -49 10 -21 13 -27 13 -56 -3 -61 -32 -67 -34 -73 -24 -6 10 7 20 55
38 40 16 48 16 108 6 l43 -7 -3 34 c-4 39 -13 42 -120 29z"/>
</g>
</svg>
