<?xml version="1.0" standalone="no"?>
<!DOCTYPE svg PUBLIC "-//W3C//DTD SVG 20010904//EN"
 "http://www.w3.org/TR/2001/REC-SVG-20010904/DTD/svg10.dtd">
<svg version="1.0" xmlns="http://www.w3.org/2000/svg"
 width="48.000000pt" height="48.000000pt" viewBox="0 0 48.000000 48.000000"
 preserveAspectRatio="xMidYMid meet">

<g transform="translate(0.000000,48.000000) scale(0.100000,-0.100000)"
fill="#000000" stroke="none">
<path d="M51 458 c-15 -24 -32 -89 -32 -123 0 -10 -5 -25 -10 -32 -14 -16 -3
-33 21 -33 12 0 20 -8 22 -22 5 -34 38 -37 38 -4 0 21 5 26 26 26 25 0 25 2
19 43 -4 23 -11 50 -16 59 -5 9 -7 23 -4 30 5 14 -29 78 -42 78 -5 0 -15 -10
-22 -22z"/>
<path d="M384 453 c-9 -15 -19 -40 -21 -55 -2 -16 -5 -40 -7 -55 -3 -16 -6
-37 -8 -48 -2 -14 3 -21 20 -23 16 -3 22 -10 22 -28 0 -32 33 -29 38 3 2 14
12 23 25 25 22 3 23 9 11 68 -3 14 -7 37 -9 52 -3 28 -35 88 -46 88 -4 0 -15
-12 -25 -27z"/>
<path d="M207 376 c-15 -24 -26 -54 -25 -68 1 -13 -8 -38 -20 -55 -24 -34 -28
-59 -10 -65 8 -3 5 -16 -11 -41 -12 -20 -20 -41 -16 -47 3 -5 26 -10 50 -10
l44 0 3 -42 c2 -30 8 -43 18 -43 10 0 16 13 18 43 l3 42 44 0 c24 0 47 5 50
10 4 6 -3 26 -15 45 -17 28 -19 37 -9 53 10 16 8 25 -11 53 -13 18 -23 44 -22
57 2 22 -45 112 -58 112 -3 0 -17 -20 -33 -44z"/>
</g>
</svg>
